<mxfile host="65bd71144e">
    <diagram id="f9MsL4xiHg7wn0yc3ixm" name="Page-2">
        <mxGraphModel dx="633" dy="347" grid="1" gridSize="10" guides="1" tooltips="1" connect="1" arrows="1" fold="1" page="1" pageScale="1" pageWidth="850" pageHeight="1100" math="0" shadow="0">
            <root>
                <mxCell id="0"/>
                <mxCell id="1" parent="0"/>
            </root>
        </mxGraphModel>
    </diagram>
    <diagram id="klcaT_Y_4AhSn_iE0zQx" name="Page-1">
        <mxGraphModel dx="1266" dy="7294" grid="1" gridSize="10" guides="1" tooltips="1" connect="1" arrows="1" fold="1" page="1" pageScale="1" pageWidth="850" pageHeight="1100" math="0" shadow="0">
            <root>
                <mxCell id="0"/>
                <mxCell id="1" parent="0"/>
                <mxCell id="7" value="" style="edgeStyle=none;html=1;" parent="1" source="4" edge="1">
                    <mxGeometry relative="1" as="geometry">
                        <mxPoint x="570" y="-6370" as="targetPoint"/>
                    </mxGeometry>
                </mxCell>
                <mxCell id="4" value="" style="rounded=1;whiteSpace=wrap;html=1;strokeColor=default;" parent="1" vertex="1">
                    <mxGeometry x="515" y="-6485" width="120" height="60" as="geometry"/>
                </mxCell>
                <mxCell id="5" value="&lt;font style=&quot;font-size: 18px;&quot;&gt;Inicio&lt;/font&gt;" style="text;html=1;align=center;verticalAlign=middle;whiteSpace=wrap;rounded=0;" parent="1" vertex="1">
                    <mxGeometry x="540" y="-6455" width="60" height="30" as="geometry"/>
                </mxCell>
                <mxCell id="12" style="edgeStyle=none;html=1;exitX=0.5;exitY=1;exitDx=0;exitDy=0;entryX=0.5;entryY=0;entryDx=0;entryDy=0;" parent="1" target="uaL12DNWVu5oPN3t3Q9J-24" edge="1">
                    <mxGeometry relative="1" as="geometry">
                        <mxPoint x="570" y="-6310" as="sourcePoint"/>
                        <mxPoint x="410" y="-6250" as="targetPoint"/>
                        <Array as="points"/>
                    </mxGeometry>
                </mxCell>
                <mxCell id="9" value="&lt;font style=&quot;font-size: 18px;&quot;&gt;Entrada:&lt;/font&gt;" style="text;html=1;align=center;verticalAlign=middle;whiteSpace=wrap;rounded=0;" parent="1" vertex="1">
                    <mxGeometry x="470" y="-6420" width="60" height="30" as="geometry"/>
                </mxCell>
                <mxCell id="uaL12DNWVu5oPN3t3Q9J-100" style="edgeStyle=none;html=1;entryX=0.5;entryY=0;entryDx=0;entryDy=0;" parent="1" source="uaL12DNWVu5oPN3t3Q9J-24" target="uaL12DNWVu5oPN3t3Q9J-25" edge="1">
                    <mxGeometry relative="1" as="geometry"/>
                </mxCell>
                <mxCell id="uaL12DNWVu5oPN3t3Q9J-101" style="edgeStyle=none;html=1;entryX=0.5;entryY=0;entryDx=0;entryDy=0;" parent="1" source="uaL12DNWVu5oPN3t3Q9J-24" target="uaL12DNWVu5oPN3t3Q9J-26" edge="1">
                    <mxGeometry relative="1" as="geometry"/>
                </mxCell>
                <mxCell id="uaL12DNWVu5oPN3t3Q9J-24" value="" style="rounded=0;whiteSpace=wrap;html=1;" parent="1" vertex="1">
                    <mxGeometry x="480" y="-6250" width="180" height="50" as="geometry"/>
                </mxCell>
                <mxCell id="uaL12DNWVu5oPN3t3Q9J-22" value="&lt;font style=&quot;font-size: 18px;&quot;&gt;&lt;b style=&quot;&quot;&gt;¿La longitud de &lt;code style=&quot;&quot; data-end=&quot;314&quot; data-start=&quot;309&quot;&gt;arr&lt;/code&gt; es ≤ 1?&lt;/b&gt;&lt;/font&gt;" style="text;html=1;align=center;verticalAlign=middle;whiteSpace=wrap;rounded=0;" parent="1" vertex="1">
                    <mxGeometry x="490" y="-6235" width="125" height="20" as="geometry"/>
                </mxCell>
                <mxCell id="uaL12DNWVu5oPN3t3Q9J-29" style="edgeStyle=none;html=1;entryX=0;entryY=0.5;entryDx=0;entryDy=0;exitX=0;exitY=0.5;exitDx=0;exitDy=0;" parent="1" source="uaL12DNWVu5oPN3t3Q9J-25" target="uaL12DNWVu5oPN3t3Q9J-93" edge="1">
                    <mxGeometry relative="1" as="geometry">
                        <mxPoint x="507.72000000000025" y="-6347.98" as="targetPoint"/>
                        <Array as="points">
                            <mxPoint x="370" y="-6110"/>
                            <mxPoint x="200" y="-6110"/>
                            <mxPoint x="200" y="-5810"/>
                            <mxPoint x="200" y="-5320"/>
                        </Array>
                    </mxGeometry>
                </mxCell>
                <mxCell id="uaL12DNWVu5oPN3t3Q9J-25" value="&lt;font style=&quot;font-size: 18px;&quot;&gt;&lt;br&gt;Sí &lt;br&gt;&lt;/font&gt;" style="rhombus;whiteSpace=wrap;html=1;" parent="1" vertex="1">
                    <mxGeometry x="420" y="-6150" width="80" height="80" as="geometry"/>
                </mxCell>
                <mxCell id="uaL12DNWVu5oPN3t3Q9J-32" value="" style="edgeStyle=none;html=1;" parent="1" source="uaL12DNWVu5oPN3t3Q9J-26" edge="1">
                    <mxGeometry relative="1" as="geometry">
                        <mxPoint x="670" y="-5980" as="targetPoint"/>
                    </mxGeometry>
                </mxCell>
                <mxCell id="uaL12DNWVu5oPN3t3Q9J-26" value="&lt;font style=&quot;font-size: 18px;&quot;&gt;&lt;br&gt;No&lt;br&gt;&lt;/font&gt;" style="rhombus;whiteSpace=wrap;html=1;" parent="1" vertex="1">
                    <mxGeometry x="630" y="-6140" width="80" height="80" as="geometry"/>
                </mxCell>
                <mxCell id="uaL12DNWVu5oPN3t3Q9J-30" value="&lt;font style=&quot;font-size: 18px;&quot;&gt;Verificación del caso base&lt;/font&gt;" style="text;html=1;align=center;verticalAlign=middle;whiteSpace=wrap;rounded=0;" parent="1" vertex="1">
                    <mxGeometry x="571" y="-6290" width="229" height="30" as="geometry"/>
                </mxCell>
                <mxCell id="uaL12DNWVu5oPN3t3Q9J-37" value="" style="edgeStyle=none;html=1;" parent="1" edge="1">
                    <mxGeometry relative="1" as="geometry">
                        <mxPoint x="645.438596491228" y="-5924.561403508772" as="sourcePoint"/>
                        <mxPoint x="410.0044972186565" y="-5833.262803545103" as="targetPoint"/>
                    </mxGeometry>
                </mxCell>
                <mxCell id="uaL12DNWVu5oPN3t3Q9J-39" value="" style="edgeStyle=none;html=1;" parent="1" edge="1">
                    <mxGeometry relative="1" as="geometry">
                        <mxPoint x="694.8275862068965" y="-5924.827586206897" as="sourcePoint"/>
                        <mxPoint x="962.3258513931889" y="-5828.558436532508" as="targetPoint"/>
                    </mxGeometry>
                </mxCell>
                <mxCell id="uaL12DNWVu5oPN3t3Q9J-41" value="" style="edgeStyle=none;html=1;" parent="1" target="uaL12DNWVu5oPN3t3Q9J-77" edge="1">
                    <mxGeometry relative="1" as="geometry">
                        <mxPoint x="670" y="-5900" as="sourcePoint"/>
                        <mxPoint x="674.2156862745098" y="-5709.21568627451" as="targetPoint"/>
                        <Array as="points">
                            <mxPoint x="670" y="-5920"/>
                        </Array>
                    </mxGeometry>
                </mxCell>
                <mxCell id="uaL12DNWVu5oPN3t3Q9J-45" value="" style="edgeStyle=none;html=1;" parent="1" edge="1">
                    <mxGeometry relative="1" as="geometry">
                        <mxPoint x="350" y="-5780" as="sourcePoint"/>
                        <mxPoint x="350" y="-5710" as="targetPoint"/>
                    </mxGeometry>
                </mxCell>
                <mxCell id="uaL12DNWVu5oPN3t3Q9J-42" value="" style="rounded=0;whiteSpace=wrap;html=1;" parent="1" vertex="1">
                    <mxGeometry x="610" y="-5980" width="120" height="70" as="geometry"/>
                </mxCell>
                <mxCell id="uaL12DNWVu5oPN3t3Q9J-65" value="" style="edgeStyle=none;html=1;exitX=0.604;exitY=1.061;exitDx=0;exitDy=0;exitPerimeter=0;" parent="1" source="uaL12DNWVu5oPN3t3Q9J-77" edge="1">
                    <mxGeometry relative="1" as="geometry">
                        <mxPoint x="660.4545454545455" y="-5644.545454545454" as="sourcePoint"/>
                        <mxPoint x="682" y="-5580" as="targetPoint"/>
                    </mxGeometry>
                </mxCell>
                <mxCell id="uaL12DNWVu5oPN3t3Q9J-33" value="&lt;font style=&quot;font-size: 18px;&quot;&gt;Continuar con el algoritmo.&lt;/font&gt;" style="text;html=1;align=center;verticalAlign=middle;whiteSpace=wrap;rounded=0;" parent="1" vertex="1">
                    <mxGeometry x="635" y="-5965" width="60" height="30" as="geometry"/>
                </mxCell>
                <mxCell id="uaL12DNWVu5oPN3t3Q9J-72" value="" style="shape=parallelogram;perimeter=parallelogramPerimeter;whiteSpace=wrap;html=1;fixedSize=1;" parent="1" vertex="1">
                    <mxGeometry x="505" y="-6380" width="155" height="80" as="geometry"/>
                </mxCell>
                <mxCell id="8" value="&lt;font style=&quot;font-size: 18px;&quot;&gt;&lt;code data-end=&quot;226&quot; data-start=&quot;221&quot;&gt;arr&lt;/code&gt; (arreglo a ordenar)&lt;/font&gt;" style="text;html=1;align=center;verticalAlign=middle;whiteSpace=wrap;rounded=0;" parent="1" vertex="1">
                    <mxGeometry x="535" y="-6355" width="100" height="30" as="geometry"/>
                </mxCell>
                <mxCell id="uaL12DNWVu5oPN3t3Q9J-77" value="&lt;font style=&quot;font-size: 18px;&quot;&gt;Llamadas Recursivas&lt;/font&gt;" style="rounded=0;whiteSpace=wrap;html=1;" parent="1" vertex="1">
                    <mxGeometry x="609.9956862745098" y="-5699.995686274509" width="120" height="60" as="geometry"/>
                </mxCell>
                <mxCell id="uaL12DNWVu5oPN3t3Q9J-78" value="&lt;font style=&quot;font-size: 18px;&quot;&gt;División del arreglo&lt;/font&gt;" style="rounded=0;whiteSpace=wrap;html=1;" parent="1" vertex="1">
                    <mxGeometry x="310.0044972186565" y="-5829.995502781343" width="120" height="60" as="geometry"/>
                </mxCell>
                <mxCell id="uaL12DNWVu5oPN3t3Q9J-96" style="edgeStyle=none;html=1;entryX=0;entryY=0.5;entryDx=0;entryDy=0;" parent="1" source="uaL12DNWVu5oPN3t3Q9J-83" target="uaL12DNWVu5oPN3t3Q9J-85" edge="1">
                    <mxGeometry relative="1" as="geometry"/>
                </mxCell>
                <mxCell id="uaL12DNWVu5oPN3t3Q9J-83" value="&lt;div style=&quot;&quot;&gt;&lt;span style=&quot;background-color: transparent; font-size: 18px; color: rgb(63, 63, 63);&quot;&gt;🔹 Calcular&amp;nbsp;&lt;/span&gt;&lt;code style=&quot;font-size: 18px; color: rgb(63, 63, 63);&quot; data-end=&quot;576&quot; data-start=&quot;551&quot;&gt;mid = longitud(arr) / 2&lt;/code&gt;&lt;/div&gt;&lt;br style=&quot;color: rgb(63, 63, 63); font-size: 18px;&quot;&gt;&lt;span style=&quot;color: rgb(63, 63, 63); font-size: 18px;&quot;&gt;🔹 Definir&amp;nbsp;&lt;/span&gt;&lt;code style=&quot;color: rgb(63, 63, 63); font-size: 18px;&quot; data-end=&quot;609&quot; data-start=&quot;590&quot;&gt;L = arr[0..mid-1]&lt;/code&gt;&lt;br style=&quot;color: rgb(63, 63, 63); font-size: 18px;&quot; data-end=&quot;612&quot; data-start=&quot;609&quot;&gt;&lt;br style=&quot;color: rgb(63, 63, 63); font-size: 18px;&quot;&gt;&lt;span style=&quot;color: rgb(63, 63, 63); font-size: 18px;&quot;&gt;🔹 Definir&amp;nbsp;&lt;/span&gt;&lt;code style=&quot;color: rgb(63, 63, 63); font-size: 18px;&quot; data-end=&quot;642&quot; data-start=&quot;623&quot;&gt;R = arr[mid..fin]&lt;/code&gt;" style="rounded=0;whiteSpace=wrap;html=1;align=left;" parent="1" vertex="1">
                    <mxGeometry x="250" y="-5710" width="220" height="220" as="geometry"/>
                </mxCell>
                <mxCell id="uaL12DNWVu5oPN3t3Q9J-97" style="edgeStyle=none;html=1;entryX=0;entryY=0.5;entryDx=0;entryDy=0;" parent="1" source="uaL12DNWVu5oPN3t3Q9J-85" target="uaL12DNWVu5oPN3t3Q9J-87" edge="1">
                    <mxGeometry relative="1" as="geometry"/>
                </mxCell>
                <mxCell id="uaL12DNWVu5oPN3t3Q9J-85" value="&lt;font style=&quot;font-size: 18px;&quot;&gt;🔹 &lt;code data-end=&quot;727&quot; data-start=&quot;708&quot;&gt;L = MERGE_SORT(L)&lt;/code&gt;&lt;br data-end=&quot;730&quot; data-start=&quot;727&quot;&gt;&lt;br&gt;🔹 &lt;code data-end=&quot;752&quot; data-start=&quot;733&quot;&gt;R = MERGE_SORT(R)&lt;/code&gt;&lt;/font&gt;" style="rounded=0;whiteSpace=wrap;html=1;align=left;" parent="1" vertex="1">
                    <mxGeometry x="615" y="-5580" width="165" height="170" as="geometry"/>
                </mxCell>
                <mxCell id="uaL12DNWVu5oPN3t3Q9J-88" value="" style="edgeStyle=none;html=1;" parent="1" source="uaL12DNWVu5oPN3t3Q9J-86" target="uaL12DNWVu5oPN3t3Q9J-87" edge="1">
                    <mxGeometry relative="1" as="geometry"/>
                </mxCell>
                <mxCell id="uaL12DNWVu5oPN3t3Q9J-86" value="&lt;font style=&quot;font-size: 18px;&quot;&gt;Fusión con la Función MERGE&lt;/font&gt;" style="rounded=0;whiteSpace=wrap;html=1;" parent="1" vertex="1">
                    <mxGeometry x="970" y="-5850" width="120" height="90" as="geometry"/>
                </mxCell>
                <mxCell id="uaL12DNWVu5oPN3t3Q9J-92" value="" style="edgeStyle=none;html=1;" parent="1" source="uaL12DNWVu5oPN3t3Q9J-87" target="uaL12DNWVu5oPN3t3Q9J-91" edge="1">
                    <mxGeometry relative="1" as="geometry"/>
                </mxCell>
                <mxCell id="uaL12DNWVu5oPN3t3Q9J-87" value="&lt;br&gt;&lt;font style=&quot;font-size: 18px;&quot;&gt;Llamar &lt;code data-end=&quot;930&quot; data-start=&quot;917&quot;&gt;MERGE(L, R)&lt;/code&gt;&lt;/font&gt;" style="rounded=0;whiteSpace=wrap;html=1;" parent="1" vertex="1">
                    <mxGeometry x="970" y="-5680" width="120" height="90" as="geometry"/>
                </mxCell>
                <mxCell id="uaL12DNWVu5oPN3t3Q9J-90" value="&lt;h4 style=&quot;border: 0px solid rgb(227, 227, 227); box-sizing: border-box; --tw-border-spacing-x: 0; --tw-border-spacing-y: 0; --tw-translate-x: 0; --tw-translate-y: 0; --tw-rotate: 0; --tw-skew-x: 0; --tw-skew-y: 0; --tw-scale-x: 1; --tw-scale-y: 1; --tw-pan-x: ; --tw-pan-y: ; --tw-pinch-zoom: ; --tw-scroll-snap-strictness: proximity; --tw-gradient-from-position: ; --tw-gradient-via-position: ; --tw-gradient-to-position: ; --tw-ordinal: ; --tw-slashed-zero: ; --tw-numeric-figure: ; --tw-numeric-spacing: ; --tw-numeric-fraction: ; --tw-ring-inset: ; --tw-ring-offset-width: 0px; --tw-ring-offset-color: #fff; --tw-ring-color: rgba(69,89,164,.5); --tw-ring-offset-shadow: 0 0 #0000; --tw-ring-shadow: 0 0 #0000; --tw-shadow: 0 0 #0000; --tw-shadow-colored: 0 0 #0000; --tw-blur: ; --tw-brightness: ; --tw-contrast: ; --tw-grayscale: ; --tw-hue-rotate: ; --tw-invert: ; --tw-saturate: ; --tw-sepia: ; --tw-drop-shadow: ; --tw-backdrop-blur: ; --tw-backdrop-brightness: ; --tw-backdrop-contrast: ; --tw-backdrop-grayscale: ; --tw-backdrop-hue-rotate: ; --tw-backdrop-invert: ; --tw-backdrop-opacity: ; --tw-backdrop-saturate: ; --tw-backdrop-sepia: ; --tw-contain-size: ; --tw-contain-layout: ; --tw-contain-paint: ; --tw-contain-style: ; scrollbar-color: var(--main-surface-tertiary) transparent; font-size: 16px; font-weight: 600; margin: 1rem 0px 0.5rem; color: rgb(236, 236, 236); line-height: 1.5; font-family: ui-sans-serif, -apple-system, system-ui, &amp;quot;Segoe UI&amp;quot;, Helvetica, &amp;quot;Apple Color Emoji&amp;quot;, Arial, sans-serif, &amp;quot;Segoe UI Emoji&amp;quot;, &amp;quot;Segoe UI Symbol&amp;quot;; font-style: normal; font-variant-ligatures: normal; font-variant-caps: normal; letter-spacing: normal; orphans: 2; text-align: start; text-indent: 0px; text-transform: none; widows: 2; word-spacing: 0px; -webkit-text-stroke-width: 0px; white-space: normal; background-color: rgb(33, 33, 33); text-decoration-thickness: initial; text-decoration-style: initial; text-decoration-color: initial;&quot; data-end=&quot;1657&quot; data-start=&quot;1591&quot;&gt;&lt;strong style=&quot;border: 0px solid rgb(227, 227, 227); box-sizing: border-box; --tw-border-spacing-x: 0; --tw-border-spacing-y: 0; --tw-translate-x: 0; --tw-translate-y: 0; --tw-rotate: 0; --tw-skew-x: 0; --tw-skew-y: 0; --tw-scale-x: 1; --tw-scale-y: 1; --tw-pan-x: ; --tw-pan-y: ; --tw-pinch-zoom: ; --tw-scroll-snap-strictness: proximity; --tw-gradient-from-position: ; --tw-gradient-via-position: ; --tw-gradient-to-position: ; --tw-ordinal: ; --tw-slashed-zero: ; --tw-numeric-figure: ; --tw-numeric-spacing: ; --tw-numeric-fraction: ; --tw-ring-inset: ; --tw-ring-offset-width: 0px; --tw-ring-offset-color: #fff; --tw-ring-color: rgba(69,89,164,.5); --tw-ring-offset-shadow: 0 0 #0000; --tw-ring-shadow: 0 0 #0000; --tw-shadow: 0 0 #0000; --tw-shadow-colored: 0 0 #0000; --tw-blur: ; --tw-brightness: ; --tw-contrast: ; --tw-grayscale: ; --tw-hue-rotate: ; --tw-invert: ; --tw-saturate: ; --tw-sepia: ; --tw-drop-shadow: ; --tw-backdrop-blur: ; --tw-backdrop-brightness: ; --tw-backdrop-contrast: ; --tw-backdrop-grayscale: ; --tw-backdrop-hue-rotate: ; --tw-backdrop-invert: ; --tw-backdrop-opacity: ; --tw-backdrop-saturate: ; --tw-backdrop-sepia: ; --tw-contain-size: ; --tw-contain-layout: ; --tw-contain-paint: ; --tw-contain-style: ; scrollbar-color: var(--main-surface-tertiary) transparent; font-weight: 700; color: inherit;&quot; data-end=&quot;1631&quot; data-start=&quot;1596&quot;&gt;4️⃣ Agregar Elementos Restantes&lt;/strong&gt;&lt;span&gt;&amp;nbsp;&lt;/span&gt;&lt;em style=&quot;border: 0px solid rgb(227, 227, 227); box-sizing: border-box; --tw-border-spacing-x: 0; --tw-border-spacing-y: 0; --tw-translate-x: 0; --tw-translate-y: 0; --tw-rotate: 0; --tw-skew-x: 0; --tw-skew-y: 0; --tw-scale-x: 1; --tw-scale-y: 1; --tw-pan-x: ; --tw-pan-y: ; --tw-pinch-zoom: ; --tw-scroll-snap-strictness: proximity; --tw-gradient-from-position: ; --tw-gradient-via-position: ; --tw-gradient-to-position: ; --tw-ordinal: ; --tw-slashed-zero: ; --tw-numeric-figure: ; --tw-numeric-spacing: ; --tw-numeric-fraction: ; --tw-ring-inset: ; --tw-ring-offset-width: 0px; --tw-ring-offset-color: #fff; --tw-ring-color: rgba(69,89,164,.5); --tw-ring-offset-shadow: 0 0 #0000; --tw-ring-shadow: 0 0 #0000; --tw-shadow: 0 0 #0000; --tw-shadow-colored: 0 0 #0000; --tw-blur: ; --tw-brightness: ; --tw-contrast: ; --tw-grayscale: ; --tw-hue-rotate: ; --tw-invert: ; --tw-saturate: ; --tw-sepia: ; --tw-drop-shadow: ; --tw-backdrop-blur: ; --tw-backdrop-brightness: ; --tw-backdrop-contrast: ; --tw-backdrop-grayscale: ; --tw-backdrop-hue-rotate: ; --tw-backdrop-invert: ; --tw-backdrop-opacity: ; --tw-backdrop-saturate: ; --tw-backdrop-sepia: ; --tw-contain-size: ; --tw-contain-layout: ; --tw-contain-paint: ; --tw-contain-style: ; scrollbar-color: var(--main-surface-tertiary) transparent;&quot; data-end=&quot;1657&quot; data-start=&quot;1632&quot;&gt;(Rectángulos - Proceso)&lt;/em&gt;&lt;/h4&gt;&lt;p style=&quot;border: 0px solid rgb(227, 227, 227); box-sizing: border-box; --tw-border-spacing-x: 0; --tw-border-spacing-y: 0; --tw-translate-x: 0; --tw-translate-y: 0; --tw-rotate: 0; --tw-skew-x: 0; --tw-skew-y: 0; --tw-scale-x: 1; --tw-scale-y: 1; --tw-pan-x: ; --tw-pan-y: ; --tw-pinch-zoom: ; --tw-scroll-snap-strictness: proximity; --tw-gradient-from-position: ; --tw-gradient-via-position: ; --tw-gradient-to-position: ; --tw-ordinal: ; --tw-slashed-zero: ; --tw-numeric-figure: ; --tw-numeric-spacing: ; --tw-numeric-fraction: ; --tw-ring-inset: ; --tw-ring-offset-width: 0px; --tw-ring-offset-color: #fff; --tw-ring-color: rgba(69,89,164,.5); --tw-ring-offset-shadow: 0 0 #0000; --tw-ring-shadow: 0 0 #0000; --tw-shadow: 0 0 #0000; --tw-shadow-colored: 0 0 #0000; --tw-blur: ; --tw-brightness: ; --tw-contrast: ; --tw-grayscale: ; --tw-hue-rotate: ; --tw-invert: ; --tw-saturate: ; --tw-sepia: ; --tw-drop-shadow: ; --tw-backdrop-blur: ; --tw-backdrop-brightness: ; --tw-backdrop-contrast: ; --tw-backdrop-grayscale: ; --tw-backdrop-hue-rotate: ; --tw-backdrop-invert: ; --tw-backdrop-opacity: ; --tw-backdrop-saturate: ; --tw-backdrop-sepia: ; --tw-contain-size: ; --tw-contain-layout: ; --tw-contain-paint: ; --tw-contain-style: ; scrollbar-color: var(--main-surface-tertiary) transparent; margin: 0.5rem 0px; color: rgb(236, 236, 236); font-family: ui-sans-serif, -apple-system, system-ui, &amp;quot;Segoe UI&amp;quot;, Helvetica, &amp;quot;Apple Color Emoji&amp;quot;, Arial, sans-serif, &amp;quot;Segoe UI Emoji&amp;quot;, &amp;quot;Segoe UI Symbol&amp;quot;; font-size: 16px; font-style: normal; font-variant-ligatures: normal; font-variant-caps: normal; font-weight: 400; letter-spacing: normal; orphans: 2; text-align: start; text-indent: 0px; text-transform: none; widows: 2; word-spacing: 0px; -webkit-text-stroke-width: 0px; white-space: normal; background-color: rgb(33, 33, 33); text-decoration-thickness: initial; text-decoration-style: initial; text-decoration-color: initial;&quot; data-end=&quot;1785&quot; data-start=&quot;1658&quot;&gt;🔹 Mientras&lt;span&gt;&amp;nbsp;&lt;/span&gt;&lt;code style=&quot;border: 0px solid rgb(227, 227, 227); box-sizing: border-box; --tw-border-spacing-x: 0; --tw-border-spacing-y: 0; --tw-translate-x: 0; --tw-translate-y: 0; --tw-rotate: 0; --tw-skew-x: 0; --tw-skew-y: 0; --tw-scale-x: 1; --tw-scale-y: 1; --tw-pan-x: ; --tw-pan-y: ; --tw-pinch-zoom: ; --tw-scroll-snap-strictness: proximity; --tw-gradient-from-position: ; --tw-gradient-via-position: ; --tw-gradient-to-position: ; --tw-ordinal: ; --tw-slashed-zero: ; --tw-numeric-figure: ; --tw-numeric-spacing: ; --tw-numeric-fraction: ; --tw-ring-inset: ; --tw-ring-offset-width: 0px; --tw-ring-offset-color: #fff; --tw-ring-color: rgba(69,89,164,.5); --tw-ring-offset-shadow: 0 0 #0000; --tw-ring-shadow: 0 0 #0000; --tw-shadow: 0 0 #0000; --tw-shadow-colored: 0 0 #0000; --tw-blur: ; --tw-brightness: ; --tw-contrast: ; --tw-grayscale: ; --tw-hue-rotate: ; --tw-invert: ; --tw-saturate: ; --tw-sepia: ; --tw-drop-shadow: ; --tw-backdrop-blur: ; --tw-backdrop-brightness: ; --tw-backdrop-contrast: ; --tw-backdrop-grayscale: ; --tw-backdrop-hue-rotate: ; --tw-backdrop-invert: ; --tw-backdrop-opacity: ; --tw-backdrop-saturate: ; --tw-backdrop-sepia: ; --tw-contain-size: ; --tw-contain-layout: ; --tw-contain-paint: ; --tw-contain-style: ; scrollbar-color: var(--main-surface-tertiary) transparent; font-feature-settings: normal; font-family: ui-monospace, SFMono-Regular, &amp;quot;SF Mono&amp;quot;, Menlo, Consolas, &amp;quot;Liberation Mono&amp;quot;, monospace !important; font-size: 0.875em; font-variation-settings: normal; background-color: var(--gray-700); border-radius: 0.25rem; color: var(--tw-prose-code); font-weight: 500; padding: 0.15rem 0.3rem;&quot; data-end=&quot;1687&quot; data-start=&quot;1670&quot;&gt;i &amp;lt; longitud(L)&lt;/code&gt;, agregar&lt;span&gt;&amp;nbsp;&lt;/span&gt;&lt;code style=&quot;border: 0px solid rgb(227, 227, 227); box-sizing: border-box; --tw-border-spacing-x: 0; --tw-border-spacing-y: 0; --tw-translate-x: 0; --tw-translate-y: 0; --tw-rotate: 0; --tw-skew-x: 0; --tw-skew-y: 0; --tw-scale-x: 1; --tw-scale-y: 1; --tw-pan-x: ; --tw-pan-y: ; --tw-pinch-zoom: ; --tw-scroll-snap-strictness: proximity; --tw-gradient-from-position: ; --tw-gradient-via-position: ; --tw-gradient-to-position: ; --tw-ordinal: ; --tw-slashed-zero: ; --tw-numeric-figure: ; --tw-numeric-spacing: ; --tw-numeric-fraction: ; --tw-ring-inset: ; --tw-ring-offset-width: 0px; --tw-ring-offset-color: #fff; --tw-ring-color: rgba(69,89,164,.5); --tw-ring-offset-shadow: 0 0 #0000; --tw-ring-shadow: 0 0 #0000; --tw-shadow: 0 0 #0000; --tw-shadow-colored: 0 0 #0000; --tw-blur: ; --tw-brightness: ; --tw-contrast: ; --tw-grayscale: ; --tw-hue-rotate: ; --tw-invert: ; --tw-saturate: ; --tw-sepia: ; --tw-drop-shadow: ; --tw-backdrop-blur: ; --tw-backdrop-brightness: ; --tw-backdrop-contrast: ; --tw-backdrop-grayscale: ; --tw-backdrop-hue-rotate: ; --tw-backdrop-invert: ; --tw-backdrop-opacity: ; --tw-backdrop-saturate: ; --tw-backdrop-sepia: ; --tw-contain-size: ; --tw-contain-layout: ; --tw-contain-paint: ; --tw-contain-style: ; scrollbar-color: var(--main-surface-tertiary) transparent; font-feature-settings: normal; font-family: ui-monospace, SFMono-Regular, &amp;quot;SF Mono&amp;quot;, Menlo, Consolas, &amp;quot;Liberation Mono&amp;quot;, monospace !important; font-size: 0.875em; font-variation-settings: normal; background-color: var(--gray-700); border-radius: 0.25rem; color: var(--tw-prose-code); font-weight: 500; padding: 0.15rem 0.3rem;&quot; data-end=&quot;1703&quot; data-start=&quot;1697&quot;&gt;L[i]&lt;/code&gt;&lt;span&gt;&amp;nbsp;&lt;/span&gt;a&lt;span&gt;&amp;nbsp;&lt;/span&gt;&lt;code style=&quot;border: 0px solid rgb(227, 227, 227); box-sizing: border-box; --tw-border-spacing-x: 0; --tw-border-spacing-y: 0; --tw-translate-x: 0; --tw-translate-y: 0; --tw-rotate: 0; --tw-skew-x: 0; --tw-skew-y: 0; --tw-scale-x: 1; --tw-scale-y: 1; --tw-pan-x: ; --tw-pan-y: ; --tw-pinch-zoom: ; --tw-scroll-snap-strictness: proximity; --tw-gradient-from-position: ; --tw-gradient-via-position: ; --tw-gradient-to-position: ; --tw-ordinal: ; --tw-slashed-zero: ; --tw-numeric-figure: ; --tw-numeric-spacing: ; --tw-numeric-fraction: ; --tw-ring-inset: ; --tw-ring-offset-width: 0px; --tw-ring-offset-color: #fff; --tw-ring-color: rgba(69,89,164,.5); --tw-ring-offset-shadow: 0 0 #0000; --tw-ring-shadow: 0 0 #0000; --tw-shadow: 0 0 #0000; --tw-shadow-colored: 0 0 #0000; --tw-blur: ; --tw-brightness: ; --tw-contrast: ; --tw-grayscale: ; --tw-hue-rotate: ; --tw-invert: ; --tw-saturate: ; --tw-sepia: ; --tw-drop-shadow: ; --tw-backdrop-blur: ; --tw-backdrop-brightness: ; --tw-backdrop-contrast: ; --tw-backdrop-grayscale: ; --tw-backdrop-hue-rotate: ; --tw-backdrop-invert: ; --tw-backdrop-opacity: ; --tw-backdrop-saturate: ; --tw-backdrop-sepia: ; --tw-contain-size: ; --tw-contain-layout: ; --tw-contain-paint: ; --tw-contain-style: ; scrollbar-color: var(--main-surface-tertiary) transparent; font-feature-settings: normal; font-family: ui-monospace, SFMono-Regular, &amp;quot;SF Mono&amp;quot;, Menlo, Consolas, &amp;quot;Liberation Mono&amp;quot;, monospace !important; font-size: 0.875em; font-variation-settings: normal; background-color: var(--gray-700); border-radius: 0.25rem; color: var(--tw-prose-code); font-weight: 500; padding: 0.15rem 0.3rem;&quot; data-end=&quot;1719&quot; data-start=&quot;1706&quot;&gt;sorted_list&lt;/code&gt;&lt;br style=&quot;border: 0px solid rgb(227, 227, 227); box-sizing: border-box; --tw-border-spacing-x: 0; --tw-border-spacing-y: 0; --tw-translate-x: 0; --tw-translate-y: 0; --tw-rotate: 0; --tw-skew-x: 0; --tw-skew-y: 0; --tw-scale-x: 1; --tw-scale-y: 1; --tw-pan-x: ; --tw-pan-y: ; --tw-pinch-zoom: ; --tw-scroll-snap-strictness: proximity; --tw-gradient-from-position: ; --tw-gradient-via-position: ; --tw-gradient-to-position: ; --tw-ordinal: ; --tw-slashed-zero: ; --tw-numeric-figure: ; --tw-numeric-spacing: ; --tw-numeric-fraction: ; --tw-ring-inset: ; --tw-ring-offset-width: 0px; --tw-ring-offset-color: #fff; --tw-ring-color: rgba(69,89,164,.5); --tw-ring-offset-shadow: 0 0 #0000; --tw-ring-shadow: 0 0 #0000; --tw-shadow: 0 0 #0000; --tw-shadow-colored: 0 0 #0000; --tw-blur: ; --tw-brightness: ; --tw-contrast: ; --tw-grayscale: ; --tw-hue-rotate: ; --tw-invert: ; --tw-saturate: ; --tw-sepia: ; --tw-drop-shadow: ; --tw-backdrop-blur: ; --tw-backdrop-brightness: ; --tw-backdrop-contrast: ; --tw-backdrop-grayscale: ; --tw-backdrop-hue-rotate: ; --tw-backdrop-invert: ; --tw-backdrop-opacity: ; --tw-backdrop-saturate: ; --tw-backdrop-sepia: ; --tw-contain-size: ; --tw-contain-layout: ; --tw-contain-paint: ; --tw-contain-style: ; scrollbar-color: var(--main-surface-tertiary) transparent;&quot; data-end=&quot;1722&quot; data-start=&quot;1719&quot;&gt;🔹 Mientras&lt;span&gt;&amp;nbsp;&lt;/span&gt;&lt;code style=&quot;border: 0px solid rgb(227, 227, 227); box-sizing: border-box; --tw-border-spacing-x: 0; --tw-border-spacing-y: 0; --tw-translate-x: 0; --tw-translate-y: 0; --tw-rotate: 0; --tw-skew-x: 0; --tw-skew-y: 0; --tw-scale-x: 1; --tw-scale-y: 1; --tw-pan-x: ; --tw-pan-y: ; --tw-pinch-zoom: ; --tw-scroll-snap-strictness: proximity; --tw-gradient-from-position: ; --tw-gradient-via-position: ; --tw-gradient-to-position: ; --tw-ordinal: ; --tw-slashed-zero: ; --tw-numeric-figure: ; --tw-numeric-spacing: ; --tw-numeric-fraction: ; --tw-ring-inset: ; --tw-ring-offset-width: 0px; --tw-ring-offset-color: #fff; --tw-ring-color: rgba(69,89,164,.5); --tw-ring-offset-shadow: 0 0 #0000; --tw-ring-shadow: 0 0 #0000; --tw-shadow: 0 0 #0000; --tw-shadow-colored: 0 0 #0000; --tw-blur: ; --tw-brightness: ; --tw-contrast: ; --tw-grayscale: ; --tw-hue-rotate: ; --tw-invert: ; --tw-saturate: ; --tw-sepia: ; --tw-drop-shadow: ; --tw-backdrop-blur: ; --tw-backdrop-brightness: ; --tw-backdrop-contrast: ; --tw-backdrop-grayscale: ; --tw-backdrop-hue-rotate: ; --tw-backdrop-invert: ; --tw-backdrop-opacity: ; --tw-backdrop-saturate: ; --tw-backdrop-sepia: ; --tw-contain-size: ; --tw-contain-layout: ; --tw-contain-paint: ; --tw-contain-style: ; scrollbar-color: var(--main-surface-tertiary) transparent; font-feature-settings: normal; font-family: ui-monospace, SFMono-Regular, &amp;quot;SF Mono&amp;quot;, Menlo, Consolas, &amp;quot;Liberation Mono&amp;quot;, monospace !important; font-size: 0.875em; font-variation-settings: normal; background-color: var(--gray-700); border-radius: 0.25rem; color: var(--tw-prose-code); font-weight: 500; padding: 0.15rem 0.3rem;&quot; data-end=&quot;1751&quot; data-start=&quot;1734&quot;&gt;j &amp;lt; longitud(R)&lt;/code&gt;, agregar&lt;span&gt;&amp;nbsp;&lt;/span&gt;&lt;code style=&quot;border: 0px solid rgb(227, 227, 227); box-sizing: border-box; --tw-border-spacing-x: 0; --tw-border-spacing-y: 0; --tw-translate-x: 0; --tw-translate-y: 0; --tw-rotate: 0; --tw-skew-x: 0; --tw-skew-y: 0; --tw-scale-x: 1; --tw-scale-y: 1; --tw-pan-x: ; --tw-pan-y: ; --tw-pinch-zoom: ; --tw-scroll-snap-strictness: proximity; --tw-gradient-from-position: ; --tw-gradient-via-position: ; --tw-gradient-to-position: ; --tw-ordinal: ; --tw-slashed-zero: ; --tw-numeric-figure: ; --tw-numeric-spacing: ; --tw-numeric-fraction: ; --tw-ring-inset: ; --tw-ring-offset-width: 0px; --tw-ring-offset-color: #fff; --tw-ring-color: rgba(69,89,164,.5); --tw-ring-offset-shadow: 0 0 #0000; --tw-ring-shadow: 0 0 #0000; --tw-shadow: 0 0 #0000; --tw-shadow-colored: 0 0 #0000; --tw-blur: ; --tw-brightness: ; --tw-contrast: ; --tw-grayscale: ; --tw-hue-rotate: ; --tw-invert: ; --tw-saturate: ; --tw-sepia: ; --tw-drop-shadow: ; --tw-backdrop-blur: ; --tw-backdrop-brightness: ; --tw-backdrop-contrast: ; --tw-backdrop-grayscale: ; --tw-backdrop-hue-rotate: ; --tw-backdrop-invert: ; --tw-backdrop-opacity: ; --tw-backdrop-saturate: ; --tw-backdrop-sepia: ; --tw-contain-size: ; --tw-contain-layout: ; --tw-contain-paint: ; --tw-contain-style: ; scrollbar-color: var(--main-surface-tertiary) transparent; font-feature-settings: normal; font-family: ui-monospace, SFMono-Regular, &amp;quot;SF Mono&amp;quot;, Menlo, Consolas, &amp;quot;Liberation Mono&amp;quot;, monospace !important; font-size: 0.875em; font-variation-settings: normal; background-color: var(--gray-700); border-radius: 0.25rem; color: var(--tw-prose-code); font-weight: 500; padding: 0.15rem 0.3rem;&quot; data-end=&quot;1767&quot; data-start=&quot;1761&quot;&gt;R[j]&lt;/code&gt;&lt;span&gt;&amp;nbsp;&lt;/span&gt;a&lt;span&gt;&amp;nbsp;&lt;/span&gt;&lt;code style=&quot;border: 0px solid rgb(227, 227, 227); box-sizing: border-box; --tw-border-spacing-x: 0; --tw-border-spacing-y: 0; --tw-translate-x: 0; --tw-translate-y: 0; --tw-rotate: 0; --tw-skew-x: 0; --tw-skew-y: 0; --tw-scale-x: 1; --tw-scale-y: 1; --tw-pan-x: ; --tw-pan-y: ; --tw-pinch-zoom: ; --tw-scroll-snap-strictness: proximity; --tw-gradient-from-position: ; --tw-gradient-via-position: ; --tw-gradient-to-position: ; --tw-ordinal: ; --tw-slashed-zero: ; --tw-numeric-figure: ; --tw-numeric-spacing: ; --tw-numeric-fraction: ; --tw-ring-inset: ; --tw-ring-offset-width: 0px; --tw-ring-offset-color: #fff; --tw-ring-color: rgba(69,89,164,.5); --tw-ring-offset-shadow: 0 0 #0000; --tw-ring-shadow: 0 0 #0000; --tw-shadow: 0 0 #0000; --tw-shadow-colored: 0 0 #0000; --tw-blur: ; --tw-brightness: ; --tw-contrast: ; --tw-grayscale: ; --tw-hue-rotate: ; --tw-invert: ; --tw-saturate: ; --tw-sepia: ; --tw-drop-shadow: ; --tw-backdrop-blur: ; --tw-backdrop-brightness: ; --tw-backdrop-contrast: ; --tw-backdrop-grayscale: ; --tw-backdrop-hue-rotate: ; --tw-backdrop-invert: ; --tw-backdrop-opacity: ; --tw-backdrop-saturate: ; --tw-backdrop-sepia: ; --tw-contain-size: ; --tw-contain-layout: ; --tw-contain-paint: ; --tw-contain-style: ; scrollbar-color: var(--main-surface-tertiary) transparent; font-feature-settings: normal; font-family: ui-monospace, SFMono-Regular, &amp;quot;SF Mono&amp;quot;, Menlo, Consolas, &amp;quot;Liberation Mono&amp;quot;, monospace !important; font-size: 0.875em; font-variation-settings: normal; background-color: var(--gray-700); border-radius: 0.25rem; color: var(--tw-prose-code); font-weight: 500; padding: 0.15rem 0.3rem;&quot; data-end=&quot;1783&quot; data-start=&quot;1770&quot;&gt;sorted_list&lt;/code&gt;&lt;/p&gt;&lt;br class=&quot;Apple-interchange-newline&quot;&gt;" style="text;whiteSpace=wrap;html=1;" parent="1" vertex="1">
                    <mxGeometry x="1710" y="-5770" width="470" height="130" as="geometry"/>
                </mxCell>
                <mxCell id="uaL12DNWVu5oPN3t3Q9J-94" value="" style="edgeStyle=none;html=1;" parent="1" source="uaL12DNWVu5oPN3t3Q9J-91" target="uaL12DNWVu5oPN3t3Q9J-93" edge="1">
                    <mxGeometry relative="1" as="geometry"/>
                </mxCell>
                <mxCell id="uaL12DNWVu5oPN3t3Q9J-91" value="&lt;font style=&quot;font-size: 18px;&quot;&gt;Recibir el resultado y&amp;nbsp;&lt;/font&gt;&lt;div&gt;&lt;font size=&quot;3&quot;&gt;retornarlo (Paralelogramo de salida)&lt;/font&gt;&lt;/div&gt;" style="shape=parallelogram;perimeter=parallelogramPerimeter;whiteSpace=wrap;html=1;fixedSize=1;rounded=0;" parent="1" vertex="1">
                    <mxGeometry x="950" y="-5500" width="230" height="70" as="geometry"/>
                </mxCell>
                <mxCell id="uaL12DNWVu5oPN3t3Q9J-93" value="&lt;font style=&quot;font-size: 18px;&quot;&gt;Fin&lt;/font&gt;" style="rounded=1;whiteSpace=wrap;html=1;" parent="1" vertex="1">
                    <mxGeometry x="980" y="-5350" width="120" height="60" as="geometry"/>
                </mxCell>
                <mxCell id="uaL12DNWVu5oPN3t3Q9J-95" value="&lt;b&gt;&lt;font style=&quot;font-size: 24px;&quot;&gt;Diagrama de Flujo para &lt;span data-end=&quot;236&quot; data-start=&quot;222&quot;&gt;Merge Sort&lt;/span&gt;&lt;/font&gt;&lt;/b&gt;" style="text;html=1;align=center;verticalAlign=middle;whiteSpace=wrap;rounded=0;" parent="1" vertex="1">
                    <mxGeometry x="340" y="-6550" width="440" height="30" as="geometry"/>
                </mxCell>
            </root>
        </mxGraphModel>
    </diagram>
</mxfile>